<?xml version="1.0" encoding="UTF-8"?>
<!DOCTYPE svg PUBLIC "-//W3C//DTD SVG 1.1//EN" "http://www.w3.org/Graphics/SVG/1.1/DTD/svg11.dtd">
<!-- Creator: CorelDRAW 2018 (64-Bit) -->
<svg xmlns="http://www.w3.org/2000/svg" xml:space="preserve" width="8in" height="2.8in" version="1.1" style="shape-rendering:geometricPrecision; text-rendering:geometricPrecision; image-rendering:optimizeQuality; fill-rule:evenodd; clip-rule:evenodd"
viewBox="0 0 8000 2800"
 xmlns:xlink="http://www.w3.org/1999/xlink">
 <g id="Layer_x0020_1">
  <metadata id="CorelCorpID_0Corel-Layer"/>
  <path fill="#B0CB1F" fill-rule="nonzero" d="M2209.48 556.95c68.76,0 124.48,55.74 124.48,124.52 0,68.74 -55.73,124.47 -124.48,124.47 -68.75,0 -124.5,-55.73 -124.5,-124.47 0,-68.77 55.74,-124.52 124.5,-124.52z"/>
  <path fill="#B0CB1F" fill-rule="nonzero" d="M2309.54 1094.75l0 703.11 -224.56 0 0 -888.99 63.29 0c88.69,0 161.26,72.58 161.26,161.29l0 24.6 0.02 0z"/>
  <path fill="#B0CB1F" fill-rule="nonzero" d="M2493.67 116.08c117.07,0 211.94,94.87 211.94,211.94 0,117.05 -94.87,211.94 -211.94,211.94 -117.06,0 -211.96,-94.89 -211.96,-211.94 0,-117.07 94.9,-211.94 211.96,-211.94z"/>
  <path fill="#9D9E9E" fill-rule="nonzero" d="M3915.08 2639.78c-37.15,0 -55.72,-19.44 -55.72,-58.3l0 -163.04 -41.28 0 0 -34.05 41.28 0 0 -68.11 39.21 0 0 68.11 50.56 0 0 34.05 -50.56 0 0 154.78c0,9.63 2.15,17.37 6.45,23.22 4.3,5.85 10.41,8.77 18.32,8.77 11,0 19.78,-3.61 26.31,-10.83l11.35 29.41c-11.35,10.66 -26.66,16 -45.92,16zm295.64 -6.19l-38.7 0 0 -164.07c0,-20.98 -4.81,-35.69 -14.44,-44.11 -9.63,-8.43 -23.56,-12.64 -41.79,-12.64 -14.1,0 -27.95,3.78 -41.54,11.35 -13.59,7.57 -24.16,16.68 -31.73,27.34l0 182.13 -38.7 0 0 -344.13 38.7 0 0 131.05c9.28,-11.69 22.01,-21.67 38.18,-29.93 16.17,-8.25 33.02,-12.38 50.56,-12.38 52.97,0 79.46,26.48 79.46,79.46l0 175.94zm115.31 -292.28c-4.99,4.99 -11.09,7.48 -18.31,7.48 -7.22,0 -13.42,-2.49 -18.57,-7.48 -5.16,-4.99 -7.74,-11.09 -7.74,-18.31 0,-7.22 2.58,-13.41 7.74,-18.57 5.16,-5.16 11.35,-7.74 18.57,-7.74 7.22,0 13.33,2.58 18.31,7.74 4.99,5.16 7.48,11.35 7.48,18.57 0,7.22 -2.49,13.33 -7.48,18.31zm0.77 292.28l-38.69 0 0 -249.2 38.69 0 0 249.2zm284.29 0l-38.18 0 0 -163.04c0,-20.98 -4.81,-35.86 -14.44,-44.63 -9.63,-8.77 -23.56,-13.15 -41.79,-13.15 -14.45,0 -28.38,3.78 -41.79,11.35 -13.42,7.57 -24.08,16.68 -31.99,27.34l0 182.13 -38.69 0 0 -249.2 38.69 0 0 36.11c9.63,-11.69 22.53,-21.67 38.7,-29.93 16.17,-8.25 33.02,-12.38 50.56,-12.38 52.63,0 78.94,26.83 78.94,80.49l0 174.91zm297.19 0l-49.53 0 -89.26 -111.96 -41.8 40.76 0 71.2 -38.69 0 0 -344.13 38.69 0 0 227.53 131.05 -132.6 49.02 0 -110.41 112.99 110.93 136.21zm83.84 -292.28c-4.99,4.99 -11.09,7.48 -18.31,7.48 -7.22,0 -13.42,-2.49 -18.57,-7.48 -5.16,-4.99 -7.74,-11.09 -7.74,-18.31 0,-7.22 2.58,-13.41 7.74,-18.57 5.16,-5.16 11.35,-7.74 18.57,-7.74 7.22,0 13.33,2.58 18.31,7.74 4.99,5.16 7.48,11.35 7.48,18.57 0,7.22 -2.49,13.33 -7.48,18.31zm0.77 292.28l-38.69 0 0 -249.2 38.69 0 0 249.2zm284.29 0l-38.18 0 0 -163.04c0,-20.98 -4.81,-35.86 -14.44,-44.63 -9.63,-8.77 -23.56,-13.15 -41.79,-13.15 -14.45,0 -28.38,3.78 -41.79,11.35 -13.42,7.57 -24.08,16.68 -31.99,27.34l0 182.13 -38.69 0 0 -249.2 38.69 0 0 36.11c9.63,-11.69 22.53,-21.67 38.7,-29.93 16.17,-8.25 33.02,-12.38 50.56,-12.38 52.63,0 78.94,26.83 78.94,80.49l0 174.91zm178 101.13c-21.67,0 -40.24,-2.75 -55.72,-8.26 -15.48,-5.5 -30.44,-15.31 -44.89,-29.41l19.61 -27.86c18.92,22.36 45.92,33.54 81,33.54 22.7,0 41.79,-5.93 57.27,-17.8 15.48,-11.87 23.22,-30.18 23.22,-54.94l0 -37.67c-9.63,13.41 -21.84,24.17 -36.63,32.25 -14.79,8.08 -30.61,12.12 -47.47,12.12 -33.02,0 -59.76,-11.61 -80.23,-34.83 -20.46,-23.22 -30.7,-54.6 -30.7,-94.16 0,-39.56 10.24,-71.03 30.7,-94.42 20.46,-23.39 47.21,-35.09 80.23,-35.09 34.4,0 62.43,14.62 84.1,43.86l0 -37.67 38.7 0 0 245.59c0,36.46 -11.26,63.03 -33.8,79.71 -22.53,16.68 -50.99,25.02 -85.39,25.02zm6.19 -132.6c14.79,0 29.07,-3.87 42.82,-11.61 13.76,-7.74 24.25,-17.28 31.47,-28.63l0 -109.38c-7.22,-11 -17.71,-20.38 -31.47,-28.12 -13.76,-7.74 -28.03,-11.61 -42.82,-11.61 -24.76,0 -44.37,8.77 -58.82,26.31 -14.44,17.54 -21.67,40.42 -21.67,68.62 0,27.86 7.22,50.56 21.67,68.1 14.45,17.54 34.06,26.31 58.82,26.31zm437.01 37.67c-37.49,0 -68.11,-12.13 -91.84,-36.37 -23.74,-24.25 -35.6,-55.81 -35.6,-94.68 0,-36.46 11.7,-67.33 35.09,-92.61 23.39,-25.28 52.63,-37.92 87.71,-37.92 36.8,0 65.96,12.64 87.45,37.92 21.5,25.28 32.25,57.19 32.25,95.71l0 9.8 -201.22 0c1.72,24.42 10.58,44.89 26.57,61.4 16,16.51 36.89,24.77 62.69,24.77 30.96,0 56.75,-10.67 77.39,-31.99l18.57 25.28c-26.48,25.8 -59.5,38.7 -99.06,38.7zm76.87 -147.05c-0.34,-20.98 -7.57,-39.98 -21.67,-57.01 -14.1,-17.02 -34.22,-25.54 -60.37,-25.54 -24.76,0 -44.28,8.43 -58.56,25.28 -14.28,16.85 -21.93,35.94 -22.96,57.27l163.56 0zm209.47 140.85l-42.31 0 -103.7 -249.2 42.31 0 82.55 204.31 83.07 -204.31 41.79 0 -103.7 249.2zm256.94 6.19c-37.49,0 -68.11,-12.13 -91.84,-36.37 -23.74,-24.25 -35.6,-55.81 -35.6,-94.68 0,-36.46 11.7,-67.33 35.09,-92.61 23.39,-25.28 52.63,-37.92 87.71,-37.92 36.8,0 65.96,12.64 87.45,37.92 21.5,25.28 32.25,57.19 32.25,95.71l0 9.8 -201.22 0c1.72,24.42 10.58,44.89 26.57,61.4 16,16.51 36.89,24.77 62.69,24.77 30.96,0 56.75,-10.67 77.39,-31.99l18.57 25.28c-26.48,25.8 -59.5,38.7 -99.06,38.7zm76.87 -147.05c-0.34,-20.98 -7.57,-39.98 -21.67,-57.01 -14.1,-17.02 -34.22,-25.54 -60.37,-25.54 -24.76,0 -44.28,8.43 -58.56,25.28 -14.28,16.85 -21.93,35.94 -22.96,57.27l163.56 0zm139.3 140.85l-38.69 0 0 -249.2 38.69 0 0 39.73c23.74,-30.27 51.43,-45.41 83.07,-45.41l0 39.73c-6.19,-0.69 -11.18,-1.03 -14.96,-1.03 -12.04,0 -24.94,4.04 -38.7,12.13 -13.76,8.08 -23.56,17.28 -29.41,27.6l0 176.45zm118.15 97.51l5.68 -35.08c6.19,2.75 13.24,4.13 21.15,4.13 8.94,0 16.34,-1.89 22.19,-5.67 5.85,-3.78 10.83,-10.66 14.96,-20.64l16.51 -37.67 -104.22 -251.78 42.31 0 82.55 204.31 83.07 -204.31 41.79 0 -124.86 299.76c-13.76,33.02 -38.18,49.87 -73.26,50.56 -10.66,0 -19.95,-1.2 -27.86,-3.61zm438.55 -165.1c6.88,11.01 17.29,20.3 31.22,27.86 13.93,7.57 28.46,11.35 43.6,11.35 24.42,0 43.85,-8.94 58.3,-26.83 14.45,-17.89 21.67,-40.93 21.67,-69.14 0,-28.2 -7.22,-51.34 -21.67,-69.39 -14.44,-18.06 -33.88,-27.09 -58.3,-27.09 -15.13,0 -29.67,3.87 -43.6,11.61 -13.93,7.74 -24.33,17.28 -31.22,28.64l0 112.99zm0 67.59l-38.69 0 0 -344.13 38.69 0 0 132.6c21.67,-29.24 49.7,-43.86 84.1,-43.86 33.02,0 59.76,11.95 80.23,35.86 20.46,23.91 30.7,55.64 30.7,95.19 0,39.9 -10.23,71.63 -30.7,95.19 -20.46,23.56 -47.21,35.34 -80.23,35.34 -34.74,0 -62.78,-14.45 -84.1,-43.34l0 37.15zm295.9 -292.28c-4.99,4.99 -11.09,7.48 -18.31,7.48 -7.22,0 -13.42,-2.49 -18.57,-7.48 -5.16,-4.99 -7.74,-11.09 -7.74,-18.31 0,-7.22 2.58,-13.41 7.74,-18.57 5.16,-5.16 11.35,-7.74 18.57,-7.74 7.22,0 13.33,2.58 18.31,7.74 4.99,5.16 7.48,11.35 7.48,18.57 0,7.22 -2.49,13.33 -7.48,18.31zm0.77 292.28l-38.69 0 0 -249.2 38.69 0 0 249.2zm140.85 6.19c-37.15,0 -55.72,-19.44 -55.72,-58.3l0 -163.04 -41.28 0 0 -34.05 41.28 0 0 -68.11 39.21 0 0 68.11 50.56 0 0 34.05 -50.56 0 0 154.78c0,9.63 2.15,17.37 6.45,23.22 4.3,5.85 10.41,8.77 18.32,8.77 11,0 19.78,-3.61 26.31,-10.83l11.35 29.41c-11.35,10.66 -26.66,16 -45.92,16z"/>
  <path fill="#2C71B7" fill-rule="nonzero" d="M4681.48 556.95c65.71,0 118.98,53.28 118.98,118.99 0,65.71 -53.26,118.94 -118.98,118.94 -65.71,0 -118.97,-53.24 -118.97,-118.94 0,-65.71 53.26,-118.99 118.97,-118.99zm2457.81 719.26l379.47 0 0 -6.65c0,-123.13 -62.14,-184.68 -186.43,-184.68 -118.49,0 -182.93,63.89 -193.04,191.33zm193.04 -367.34c269.95,0 404.9,137.59 404.9,413 0,36.7 -2.6,73.41 -7.79,110.09l-590.15 0c0,125.44 91.9,188.17 276,188.17 25.67,0 51.31,-0.72 76.95,-2.11l0 0.03 54.41 0c71.64,0 131.04,50.28 137.99,119.6l0 34.79c-78.6,17.05 -173.97,25.43 -286.12,25.43 -322.52,0 -483.51,-151.44 -483.51,-454.6 0,-289.6 139.03,-434.39 417.32,-434.39zm-4567.99 130.35c56.97,-58.37 119.43,-97.05 187.25,-116.22l0 -0.02c33.3,-9.41 67.88,-14.12 103.77,-14.12 210.69,0 315.89,109.55 315.89,328.31l0 560.69 -224.28 0 0 -560.69c0,-82.39 -34.54,-130.23 -103.62,-143.35l-1.77 -0.33 -0.18 -0.03 -0.91 -0.17 -0.51 -0.07 -2.64 -0.45 -0.68 -0.11 -2.19 -0.33 -3.41 -0.45 -0.84 -0.11 -2.99 -0.35 -1.39 -0.12 -2.99 -0.28 -1.35 -0.11 -3.05 -0.26 -0.59 -0.02 -3.39 -0.22 -1.01 -0.03 -3.9 -0.18 -0.18 0c-2.93,-0.09 -5.91,-0.15 -8.93,-0.15 -2.18,0 -4.37,0.04 -6.54,0.07l-0.75 0.04 -2.94 0.09 -3.12 0.12 -1.04 0.07 -2.63 0.14 -0.06 0 -3.36 0.24 -2.46 0.19 -1.95 0.18 -4.56 0.45 -2.15 0.24 -2.44 0.29 -2.97 0.39 -0.92 0.13 -1.44 0.21c-2.17,0.3 -4.35,0.65 -6.53,1l-1.68 0.29 -1.28 0.25c-3.32,0.57 -6.63,1.25 -9.95,1.97l-2.26 0.5 -2.19 0.52 -5.03 1.22 -1.85 0.46 -6.08 1.68 -1.39 0.39 -0.36 0.11 -3.26 0.98 -4.2 1.32 -0.39 0.12c-2.3,0.73 -4.61,1.52 -6.9,2.32 -40.76,14.2 -80.96,37.94 -120.6,71.3l0 620.5 -224.56 0 0 -888.99 54.42 0c76.26,0 138.65,62.39 138.65,138.67l0 1.67c2.48,-3.39 5.34,-6.74 8.66,-9.98zm3066.91 55.53l0 703.11 -224.56 0 0 -888.99 63.28 0c88.7,0 161.27,72.58 161.27,161.27l0 24.61 0.02 0zm-4862.33 -345.28l0 35.6 -350.8 0 0 1012.78 -226.94 0 0 -1012.78 -126.3 0 -63.94 0c-88.34,-0.38 -160.58,-72.8 -160.58,-161.26l0 -35.6 704.06 0 63.94 0c88.33,0.36 160.57,72.79 160.57,161.26zm4023.66 15.46l54.42 0c76.26,0 138.67,62.42 138.67,138.68l0 5.25 5.76 0 63.28 0c88.7,0 161.27,72.58 161.27,161.27l0 16.46 -198.84 0 0 408.96c0,79.34 32.84,120.87 98.44,124.32l0 0 0.28 0c2.6,0.15 5.25,0.23 7.94,0.23 80.75,4.31 145.48,71.72 145.48,153.51 0,8.07 0,16.15 0,24.24l-253 0c-149.08,0 -223.71,-79.77 -223.71,-239.6l0 -793.32zm-198.82 329.82l0 703.11 -224.56 0 0 -888.99 63.29 0c88.69,0 161.26,72.58 161.26,161.27l0 24.61 0.02 0zm-986.4 -315.04c0,-88.69 -72.57,-161.24 -161.27,-161.24l-63.28 0 0 1179.39 224.56 0 -0.02 -444.49 358.2 444.49 274.27 0 -358.2 -444.49 358.2 -444.5 -274.27 0 -358.2 444.5 0 -573.65zm-2701.05 1018.14l0 -1210.95 0 0 0 1.31 63.28 0c88.7,0 161.27,72.58 161.27,161.26l0 24.61 0.02 0 0 248.08c69.93,-75.45 159.23,-113.3 268.18,-113.3 210.69,0 315.89,109.55 315.89,328.31l0 560.69 -224.28 0 0 -560.69c0,-97.95 -48.84,-147.1 -146.52,-147.1 -72.82,0 -143.92,28.91 -213.28,87.29l0 620.5 -224.56 0zm4830.71 -888.99l1.13 0 63.28 0c88.69,0 195.22,65.19 228.22,160.2l160.25 461.18 158 -454.83c31.29,-90.1 151.59,-166.56 240.28,-166.56l63.28 0 -361.57 888.99 -213.28 0 -339.59 -888.99zm-218.05 -351.91c65.71,0 118.98,53.28 118.98,118.99 0,65.71 -53.27,118.94 -118.98,118.94 -65.71,0 -118.98,-53.24 -118.98,-118.94 0,-65.71 53.27,-118.99 118.98,-118.99z"/>
 </g>
</svg>
